<svg xmlns="http://www.w3.org/2000/svg" height="185.25" width="96.75"><path d="M83.625 2.25h-70.5A10.887 10.887 0 002.25 13.125v159A10.887 10.887 0 0013.125 183h70.5A10.887 10.887 0 0094.5 172.125v-159A10.887 10.887 0 0083.625 2.25zm8.625 169.875a8.634 8.634 0 01-8.625 8.625h-70.5a8.635 8.635 0 01-8.625-8.625v-159A8.634 8.634 0 0113.125 4.5h12a1.125 1.125 0 011.125 1.125v5.366a1.762 1.762 0 001.76 1.759h39.231A1.762 1.762 0 0069 10.991V5.625A1.125 1.125 0 0170.125 4.5h13.5a8.633 8.633 0 018.625 8.625z" fill="#555556"/><path d="M83.625 6.75H71.25v4.241A4.014 4.014 0 0167.241 15H28.01A4.014 4.014 0 0124 10.991V6.75H13.125a6.382 6.382 0 00-6.375 6.375v159a6.383 6.383 0 006.375 6.375h70.5A6.382 6.382 0 0090 172.125v-159a6.381 6.381 0 00-6.375-6.375z" fill="#85c3e9"/><path d="M83.625 0h-70.5a13.087 13.087 0 00-3.2.41l68.163 184.84h5.536a13.139 13.139 0 0013.125-13.125v-159A13.139 13.139 0 0083.625 0z" fill="#e6e7e8" opacity=".15"/><g fill="none" stroke="#3e4147" stroke-linecap="round" stroke-linejoin="round" stroke-width="2.25" transform="translate(-11362.125 -978.236)"><rect height="183" rx="12" width="94.5" x="11363.25" y="979.361"/><path d="M11432.251 983.861h13.5a7.509 7.509 0 017.5 7.5v159a7.509 7.509 0 01-7.5 7.5h-70.5a7.509 7.509 0 01-7.5-7.5v-159a7.509 7.509 0 017.5-7.5h12"/><path d="M11432.25 983.86v5.366a2.885 2.885 0 01-2.885 2.885h-39.23a2.885 2.885 0 01-2.885-2.885v-5.366"/></g></svg>
